<svg xmlns="http://www.w3.org/2000/svg" width="1200" height="630" viewBox="0 0 1200 630" role="img" aria-labelledby="title desc">
  <title id="title">Fan Poker Teaching Skill</title>
  <desc id="desc">An interactive teaching deck generated by AI, shown as a single-sided fan of cards.</desc>
  <rect width="1200" height="630" fill="#f7f4ee"/>
  <circle cx="1040" cy="96" r="116" fill="#f2a65a" opacity=".25"/>
  <circle cx="114" cy="536" r="170" fill="#7dcfb6" opacity=".18"/>

  <g transform="translate(675 78)">
    <g transform="translate(50 28) rotate(11 170 230)">
      <rect width="340" height="460" rx="28" fill="#fff" stroke="#171717" stroke-opacity=".12" stroke-width="2"/>
      <path d="M0 28A28 28 0 0 1 28 0h284a28 28 0 0 1 28 28v162H0z" fill="#f4d35e"/>
    </g>
    <g transform="translate(26 14) rotate(6 170 230)">
      <rect width="340" height="460" rx="28" fill="#fff" stroke="#171717" stroke-opacity=".12" stroke-width="2"/>
      <path d="M0 28A28 28 0 0 1 28 0h284a28 28 0 0 1 28 28v162H0z" fill="#8e9aef"/>
    </g>
    <g>
      <rect width="340" height="460" rx="28" fill="#fff" stroke="#171717" stroke-opacity=".16" stroke-width="2"/>
      <path d="M0 28A28 28 0 0 1 28 0h284a28 28 0 0 1 28 28v162H0z" fill="#f2a65a"/>
      <rect x="34" y="34" width="54" height="38" rx="19" fill="#fff" fill-opacity=".86" stroke="#171717" stroke-opacity=".14"/>
      <text x="61" y="59" text-anchor="middle" font-family="Arial, sans-serif" font-size="16" font-weight="700" fill="#171717">01</text>
      <text x="280" y="156" text-anchor="middle" font-family="Georgia, serif" font-size="104" fill="#171717" fill-opacity=".7">A</text>
      <text x="38" y="238" font-family="Arial, sans-serif" font-size="15" font-weight="700" letter-spacing="2" fill="#e96d2f">AGENT SKILL</text>
      <text x="38" y="290" font-family="Arial, sans-serif" font-size="34" font-weight="800" fill="#171717">One idea</text>
      <text x="38" y="332" font-family="Arial, sans-serif" font-size="34" font-weight="800" fill="#171717">per card.</text>
      <text x="38" y="382" font-family="Arial, sans-serif" font-size="17" fill="#737373">Click · Drag · Wheel · Keyboard</text>
      <text x="38" y="414" font-family="Arial, sans-serif" font-size="17" fill="#737373">Pure HTML · Zero dependencies</text>
    </g>
  </g>

  <g transform="translate(78 100)">
    <rect x="0" y="0" width="104" height="36" rx="18" fill="#171717"/>
    <text x="52" y="24" text-anchor="middle" font-family="Arial, sans-serif" font-size="14" font-weight="700" fill="#fff">AI → HTML</text>
    <text x="0" y="104" font-family="Arial, sans-serif" font-size="58" font-weight="800" fill="#171717">Fan Poker</text>
    <text x="0" y="170" font-family="Arial, sans-serif" font-size="58" font-weight="800" fill="#171717">Teaching Skill</text>
    <text x="0" y="226" font-family="Arial, sans-serif" font-size="23" fill="#555">Turn any topic into an interactive</text>
    <text x="0" y="260" font-family="Arial, sans-serif" font-size="23" fill="#555">single-file teaching deck.</text>

    <g transform="translate(0 316)">
      <rect width="178" height="48" rx="14" fill="#e96d2f"/>
      <text x="89" y="31" text-anchor="middle" font-family="Arial, sans-serif" font-size="16" font-weight="700" fill="#fff">Open the demo</text>
      <text x="0" y="100" font-family="Arial, sans-serif" font-size="17" font-weight="700" fill="#171717">github.com/Hubujiu/fan-poker-teaching-skill</text>
    </g>
  </g>
</svg>
